M48
;GenerationSoftware,Autodesk,EAGLE,9.1.1*%
;CreationDate,2018-08-07T15:37:48Z*%
FMAT,2
ICI,OFF
METRIC,TZ,000.000
T6C0.350
T5C0.600
T4C1.016
T3C1.020
T2C1.854
T1C3.505
%
G90
M71
T1
X3810Y67310
X46990Y67310
X3810Y3810
X46990Y3810
T2
X33274Y3810
X23876Y3810
X28575Y3810
T3
X29210Y29210
X29210Y26670
X29210Y44450
X29210Y41910
X29210Y39370
X29210Y36830
X29210Y54610
X29210Y52070
X29210Y49530
X29210Y46990
X8890Y34290
X8890Y31750
X29210Y31750
X8890Y26670
X8890Y44450
X8890Y41910
X8890Y39370
X8890Y36830
X8890Y54610
X8890Y52070
X8890Y49530
X8890Y46990
X8890Y64770
X8890Y62230
X8890Y59690
X8890Y57150
X29210Y34290
X8890Y29210
T4
X48260Y36830
X48260Y34290
X48260Y59055
X48260Y61595
X48260Y47625
X48260Y50165
X3810Y25400
X46990Y12700
X46990Y15240
X46990Y17780
X46990Y20320
X46990Y22860
X46990Y25400
X3810Y35560
X3810Y38100
X3810Y40640
X3810Y27940
X3810Y30480
X3810Y55880
X3810Y58420
X3810Y60960
X3810Y45720
X3810Y48260
X3810Y50800
X3810Y12700
X3810Y15240
X3810Y17780
X3810Y20320
T5
X38370Y5080
X40370Y5080
T6
X39370Y33020
X36195Y31750
X36221Y53949
X39370Y54610
X39370Y17780
X39370Y19050
X41529Y34112
X46355Y10160
X45085Y30480
X45085Y52070
X36195Y51435
X36195Y29845
X40640Y34112
X39751Y34112
X39751Y34925
X40640Y34925
X41529Y34925
X41529Y35738
X40640Y35738
X39751Y35738
X39751Y57328
X40640Y55702
X41529Y55702
X39751Y55702
X40640Y56515
X41529Y57328
X39751Y56515
X30480Y15875
X10795Y9525
X40640Y57328
X41529Y56515
X37465Y38100
X23495Y34290
X7620Y20320
X24130Y17780
X41275Y12065
X32385Y10160
X15240Y17145
M30